# xmcd CD database file
#
# Track frame offsets:
#	150
#	17205
#	33815
#	48060
#	63480
#	79715
#	93872
#	111695
#	126010
#	139830
#	158900
#	165567
#	182930
#	200220
#	217775
#	234562
#	252907
#	267710
#	283845
#	300407
#	313995
#	331785
#
# Disc length: 4646 seconds
#
# Revision: 0
# Processed by: cddbd v1.5.1PL2 Copyright (c) Steve Scherf et al.
# Submitted via: CDex 1.51
#
DISCID=3f122416
DTITLE=北原佐和子 - TOKIMEKI and KISS
DYEAR=2005
DGENRE=Rock
TTITLE0=パッとパンジー
TTITLE1=何も知らないくせに
TTITLE2=Lovely Loveはレモン色
TTITLE3=Love Loveキャッチボール
TTITLE4=私のシークレット
TTITLE5=マイ・ボーイフレンド
TTITLE6=ちょっとアドベンチャー
TTITLE7=お茶目はダ・メ・ヨ
TTITLE8=恋の交差点
TTITLE9=恋は2オンス
TTITLE10=INTRODUCTION
TTITLE11=土曜日のシンデレラ
TTITLE12=夜空のブランコ
TTITLE13=想い出色の南風
TTITLE14=I LOVE YOUは夢の中
TTITLE15=とびっきりポアポア
TTITLE16=スウィート・チェリーパイ
TTITLE17=気づいたらYOU
TTITLE18=昔っぽくLOVEって
TTITLE19=お・し・え・て
TTITLE20=秋風の手紙
TTITLE21=水色のダイアリー
EXTD=YEAR: 2005
EXTT0=
EXTT1=
EXTT2=
EXTT3=
EXTT4=
EXTT5=
EXTT6=
EXTT7=
EXTT8=
EXTT9=
EXTT10=
EXTT11=
EXTT12=
EXTT13=
EXTT14=
EXTT15=
EXTT16=
EXTT17=
EXTT18=
EXTT19=
EXTT20=
EXTT21=
PLAYORDER=
